<svg id="visual" viewBox="0 0 900 600" width="900" height="600" xmlns="http://www.w3.org/2000/svg" xmlns:xlink="http://www.w3.org/1999/xlink" version="1.1"><rect x="0" y="0" width="900" height="600" fill="#ffffff"></rect><defs><linearGradient id="grad1_0" x1="33.3%" y1="0%" x2="100%" y2="100%"><stop offset="20%" stop-color="#ffce00" stop-opacity="1"></stop><stop offset="80%" stop-color="#ffce00" stop-opacity="1"></stop></linearGradient></defs><defs><linearGradient id="grad1_1" x1="33.3%" y1="0%" x2="100%" y2="100%"><stop offset="20%" stop-color="#ffce00" stop-opacity="1"></stop><stop offset="80%" stop-color="#ffffff" stop-opacity="1"></stop></linearGradient></defs><defs><linearGradient id="grad2_0" x1="0%" y1="0%" x2="66.7%" y2="100%"><stop offset="20%" stop-color="#ffce00" stop-opacity="1"></stop><stop offset="80%" stop-color="#ffce00" stop-opacity="1"></stop></linearGradient></defs><defs><linearGradient id="grad2_1" x1="0%" y1="0%" x2="66.7%" y2="100%"><stop offset="20%" stop-color="#ffffff" stop-opacity="1"></stop><stop offset="80%" stop-color="#ffce00" stop-opacity="1"></stop></linearGradient></defs><g transform="translate(900, 0)"><path d="M0 270.4C-32.6 263 -65.3 255.5 -101.4 244.8C-137.6 234.1 -177.3 220.2 -191.2 191.2C-205.2 162.2 -193.4 118.2 -202.3 83.8C-211.2 49.4 -240.8 24.7 -270.4 0L0 0Z" fill="#ffe696"></path><path d="M0 135.2C-16.3 131.5 -32.6 127.8 -50.7 122.4C-68.8 117.1 -88.6 110.1 -95.6 95.6C-102.6 81.1 -96.7 59.1 -101.2 41.9C-105.6 24.7 -120.4 12.4 -135.2 0L0 0Z" fill="#ffce00"></path></g><g transform="translate(0, 600)"><path d="M0 -270.4C35.9 -267.4 71.8 -264.4 103.5 -249.8C135.2 -235.3 162.7 -209.2 181 -181C199.3 -152.8 208.4 -122.4 221.7 -91.8C235.1 -61.3 252.8 -30.7 270.4 0L0 0Z" fill="#ffe696"></path><path d="M0 -135.2C17.9 -133.7 35.9 -132.2 51.7 -124.9C67.6 -117.6 81.4 -104.6 90.5 -90.5C99.7 -76.4 104.2 -61.2 110.9 -45.9C117.5 -30.7 126.4 -15.3 135.2 0L0 0Z" fill="#ffce00"></path></g></svg>